<?xml version="1.0" encoding="iso-8859-1"?>
<svg height="800px" width="800px" version="1.1" id="Layer_1" xmlns="http://www.w3.org/2000/svg" xmlns:xlink="http://www.w3.org/1999/xlink" 
	 viewBox="0 0 512 512" xml:space="preserve">
<circle style="fill:#FFFCE6;" cx="255.99" cy="255.966" r="220.652"/>
<circle style="fill:#FFF8C1;" cx="255.99" cy="255.966" r="176.522"/>
<circle style="fill:#FFF082;" cx="255.99" cy="255.966" r="132.391"/>
<circle style="fill:#FFFCE6;" cx="255.99" cy="255.966" r="70.609"/>
<circle style="fill:#FFFFFF;" cx="255.99" cy="255.966" r="26.478"/>
<path style="fill:#59D8FF;" d="M511.508,277.179c-3.729-55.144-26.758-103.284-61.516-139.207c-4.184-4.324-11.349-3.42-14.214,1.87
	l-49.001,90.464c-2.63,4.855-7.38,8.199-12.838,9.039l-83.229,12.804c-4.101,0.631-7.208,4.032-7.467,8.173l-6.768,108.292
	c-0.257,4.109-1.942,7.999-4.764,10.997l-78.69,83.608c-8.305,8.825-5.421,23.13,5.57,28.234
	c44.48,20.653,96.309,26.778,148.422,13.301C448.584,478.486,518.586,381.852,511.508,277.179z"/>
<path style="fill:#00C3F0;" d="M435.739,139.914l-48.962,90.39c-2.63,4.855-7.38,8.199-12.838,9.039l-47.382,7.289l5.842,21.803
	c1.676,6.253,5.767,11.585,11.375,14.823l21.36,12.332c3.706,2.139,7.926,3.27,12.205,3.27c2.133,0,4.257-0.28,6.318-0.832
	l33.07-8.86l3.609,13.467c0.829,3.091,2.365,5.948,4.489,8.343l8.059,9.09l2.838,10.589c0.436,1.627,1.07,3.195,1.888,4.669
	l28.092,50.604c2.229,4.015,5.765,6.935,9.836,8.715c-13.18,6.634-27.188,12.086-42.001,16.056
	c-32.809,8.791-65.869,9.686-97.181,3.882c1.283-4.089,1.43-8.454,0.293-12.693l-1.153-4.304l2.052-0.551
	c9.49-2.546,16.289-10.878,16.878-20.686l2.207-36.755c0.617-10.275-5.72-19.692-15.471-22.99l-18.3-6.19
	c-2.363-0.799-4.823-1.204-7.316-1.204c-1.994,0-3.981,0.261-5.907,0.778l-9.23,2.474l-4.192-6.349
	c-3.517-5.328-9.058-8.724-15.224-9.775l-4.518,72.278c-0.257,4.109-1.942,7.999-4.764,10.997l-78.719,83.638
	c-8.319,8.839-5.397,23.144,5.615,28.25c45.249,20.98,97.814,26.837,149.759,12.919c60.942-16.329,108.993-56.669,136.846-108.085
	c0.047-0.006,0.095-0.015,0.142-0.019c16.936-31.234,26.558-67.012,26.558-105.037c0-59.525-23.6-113.507-61.927-153.18
	C445.788,133.755,438.616,134.602,435.739,139.914z"/>
<path style="fill:#B4FF87;" d="M324.208,384.856l9.402-2.519c3.163-0.847,5.429-3.624,5.626-6.893l2.207-36.762
	c0.205-3.425-1.906-6.564-5.157-7.663l-18.301-6.19c-1.423-0.481-2.956-0.531-4.406-0.142l-14.527,3.892
	c-3.163,0.847-6.514-0.424-8.319-3.158l-7.214-10.927c-0.865-1.311-2.097-2.261-3.483-2.827l-3.559,56.945
	c-0.257,4.109-1.942,7.999-4.764,10.997l-15.416,16.38l15.086,56.302c0.306,1.141,0.873,2.194,1.656,3.078l29.553,33.328
	c1.912,2.156,4.879,3.047,7.662,2.301l1.481-0.397c4.541-1.217,6.903-6.221,4.957-10.501l-13.825-30.388
	c-1.017-2.236-0.893-4.827,0.336-6.955l17.988-31.155c1.009-1.748,1.282-3.825,0.76-5.773l-3.123-11.655
	C317.739,390.116,320.149,385.944,324.208,384.856z"/>
<path style="fill:#9BF57D;" d="M256.295,395.99l15.086,56.302c0.306,1.142,0.873,2.195,1.657,3.079l29.553,33.327
	c1.912,2.157,4.879,3.047,7.662,2.301l1.481-0.397c4.542-1.217,6.903-6.221,4.956-10.501l-13.824-30.388
	c-1.017-2.237-0.893-4.828,0.336-6.956l17.988-31.155c0.071-0.122,0.071-0.269,0.135-0.395
	c-20.095-5.203-39.245-13.285-56.99-23.759L256.295,395.99z"/>
<path style="fill:#B4FF87;" d="M511.086,272.559c-0.104-1.212-0.236-2.426-0.36-3.64c-0.554-5.384-1.237-10.777-2.2-16.176
	c-0.226-1.274-0.577-2.491-0.824-3.757c-0.969-4.94-1.985-9.882-3.306-14.817c-0.018-0.06-0.036-0.117-0.054-0.177
	c-1.28-4.785-2.769-9.466-4.348-14.099c-0.615-1.805-1.257-3.594-1.914-5.374c-1.451-3.921-2.995-7.788-4.654-11.588
	c-0.664-1.523-1.338-3.035-2.034-4.538c-1.801-3.885-3.712-7.696-5.724-11.443c-0.797-1.486-1.603-2.962-2.432-4.425
	c-2.432-4.292-4.949-8.524-7.649-12.617c-0.45-0.683-0.94-1.331-1.397-2.007c-2.491-3.687-5.097-7.28-7.795-10.795
	c-0.845-1.101-1.687-2.205-2.552-3.288c-3.1-3.883-6.3-7.678-9.642-11.332c-0.695-0.759-1.428-1.479-2.133-2.23
	c-0.597-0.634-1.387-1.445-2.269-2.334c-4.176-4.213-11.234-3.236-14.06,1.98l-10.322,19.057l0.639,0.13
	c1.997,0.408,3.591,1.91,4.118,3.879l2.076,7.752c0.553,2.063,2.673,3.288,4.737,2.735l1.304-0.35
	c1.415-0.38,2.496-1.526,2.788-2.961l0.776-3.784c0.888-4.344,6.355-5.809,9.296-2.491l4.149,4.679l7.349-1.969l7.857,11.9
	c2.34,3.544-0.154,8.273-4.4,8.345l-20.906,0.352c-0.435,0.061-0.865,0.121-1.301,0.182l-10.982,2.942
	c-1.7,0.456-2.71,2.203-2.254,3.903c0.563,2.102-1.098,4.137-3.269,4.006l-15.735-0.944c-2.297-0.138-4.248-1.725-4.859-3.943
	l-20.03,36.978c-2.63,4.855-7.38,8.201-12.838,9.04l-32.251,4.961l5.41,20.192c0.631,2.355,2.172,4.363,4.284,5.582l21.36,12.332
	c2.112,1.219,4.62,1.549,6.976,0.918l42.572-11.407c2.871-0.769,5.821,0.934,6.59,3.804l6.155,22.972
	c0.396,0.737,0.777,1.443,1.173,2.18l9.602,10.828c0.396,0.737,0.777,1.443,1.173,2.18l3.438,12.83
	c0.165,0.409,0.329,0.814,0.494,1.224l28.092,50.602c1.198,2.159,3.711,3.225,6.095,2.586l6.062-1.624
	c1.632-0.437,2.983-1.599,3.635-3.155c6.759-16.136,11.611-33.121,14.398-50.603c0.065-0.409,0.125-0.819,0.188-1.229
	c0.868-5.655,1.542-11.359,1.967-17.107c0.006-0.081,0.007-0.161,0.013-0.242c0.391-5.376,0.528-10.795,0.521-16.232
	c-0.002-0.876,0.019-1.749,0.006-2.626C511.82,283.08,511.538,277.825,511.086,272.559z"/>
<g>
	<path style="fill:#9BF57D;" d="M487.002,361.591l-22.194-39.979l-3.127-11.667c-0.823-3.07-2.373-5.952-4.484-8.332l-8.062-9.092
		l-5.556-20.732c-2.411-8.988-10.59-15.266-19.892-15.266c-1.799,0-3.594,0.237-5.334,0.703l-40.162,10.761l-17.038-9.838
		l-4.334-16.172l-15.13,2.328l5.41,20.192c0.631,2.355,2.172,4.363,4.284,5.583l21.36,12.332c1.409,0.814,2.998,1.231,4.596,1.231
		c0.798,0,1.596-0.104,2.381-0.313l42.57-11.407c0.468-0.125,0.936-0.184,1.397-0.184c2.375,0,4.549,1.585,5.193,3.989l6.156,22.974
		c0.216,0.806,0.618,1.552,1.173,2.178l9.602,10.828c0.554,0.624,0.955,1.37,1.173,2.178l3.439,12.832
		c0.114,0.425,0.278,0.834,0.491,1.219l28.095,50.605c0.965,1.74,2.785,2.769,4.703,2.769c0.462,0,0.93-0.06,1.393-0.184
		l6.062-1.624c1.632-0.437,2.983-1.599,3.635-3.156c0.001,0,0.001-0.001,0.001-0.001c0.394-0.942,0.798-1.879,1.179-2.825
		c0.851-2.119,1.669-4.255,2.451-6.409c0.439-1.197,0.884-2.392,1.303-3.598c1.179-3.428,2.306-6.881,3.326-10.381
		C496.746,355.023,491.193,357.701,487.002,361.591z"/>
	<path style="fill:#9BF57D;" d="M426.059,159.095c1.997,0.409,3.591,1.91,4.118,3.878l2.077,7.752
		c0.462,1.728,2.026,2.868,3.732,2.868c0.332,0,0.669-0.043,1.004-0.133l1.305-0.35c1.414-0.378,2.494-1.525,2.787-2.96l0.776-3.785
		c0.556-2.715,2.9-4.305,5.299-4.305c1.438,0,2.894,0.571,3.997,1.815l4.149,4.678l7.349-1.969l7.858,11.901
		c2.338,3.543-0.156,8.272-4.4,8.344l-20.906,0.352c-0.439,0.008-0.877,0.068-1.302,0.183l-10.981,2.942
		c-1.7,0.456-2.708,2.203-2.254,3.903c0.545,2.038-0.998,4.013-3.071,4.013c-0.066,0-0.13-0.002-0.197-0.006l-15.735-0.944
		c-2.298-0.138-4.248-1.725-4.859-3.942l-7.786,14.373c3.278,2.69,7.282,4.491,11.733,4.758l15.739,0.944l0.651,0.033h0.453
		c5.765,0,11.084-2.625,14.595-7.203c0.773-1.008,1.433-2.076,1.975-3.19l2.505-0.671l19.695-0.331
		c7.518-0.127,14.367-4.337,17.874-10.988c0.676-1.285,1.083-2.651,1.468-4.017c-0.096-0.179-0.175-0.366-0.273-0.544
		c-6.545-12.103-14.209-23.499-22.815-34.107c-0.348-0.429-0.722-0.835-1.073-1.262l-1.383,0.371
		c-3.652-2.988-8.245-4.654-13.009-4.654c-3.077,0-6.028,0.688-8.689,1.931c-1.667-1.442-3.634-2.493-5.717-3.343l-7.332,13.535
		L426.059,159.095z"/>
	<path style="fill:#9BF57D;" d="M324.208,384.856l9.402-2.52c3.163-0.847,5.429-3.624,5.626-6.894l2.207-36.761
		c0.206-3.425-1.906-6.564-5.157-7.663l-18.3-6.19c-0.79-0.267-1.613-0.4-2.438-0.4c-0.662,0-1.324,0.086-1.969,0.259l-14.527,3.892
		c-0.653,0.175-1.315,0.259-1.97,0.259c-2.512,0-4.917-1.249-6.349-3.418l-7.214-10.926c-0.861-1.303-2.116-2.135-3.492-2.702
		l-1.418,22.686c4.286,5.972,11.083,9.576,18.473,9.576c1.994,0,3.981-0.261,5.908-0.779l12.3-3.295l10.612,3.59l-1.529,25.485
		l-4.104,1.1c-5.889,1.579-10.812,5.355-13.86,10.637c-3.049,5.28-3.859,11.432-2.28,17.32l2.307,8.612l-16.411,28.424
		c-2.31,4-3.317,8.565-2.994,13.064l-1.413-1.594l-15.848-59.146c-0.386-1.438-0.965-2.784-1.604-4.092l-11.868,12.61l15.085,56.302
		c0.306,1.141,0.873,2.195,1.657,3.079l29.553,33.327c1.464,1.653,3.548,2.561,5.694,2.561c0.655,0,1.317-0.085,1.969-0.259
		l1.481-0.397c4.541-1.217,6.903-6.221,4.957-10.501l-13.825-30.388c-1.017-2.236-0.893-4.827,0.336-6.955l17.988-31.155
		c1.008-1.748,1.282-3.824,0.759-5.773l-3.122-11.655C317.74,390.116,320.149,385.944,324.208,384.856z"/>
</g>
<path style="fill:#8CE16E;" d="M290.024,435.148c-2.31,4-3.318,8.565-2.994,13.064l-1.413-1.594l-14.848-55.411
	c-2.18-1.19-4.285-2.508-6.424-3.77l-8.048,8.551l15.085,56.302c0.306,1.141,0.873,2.195,1.657,3.079l29.553,33.327
	c1.464,1.653,3.548,2.561,5.694,2.561c0.655,0,1.317-0.085,1.969-0.259l1.481-0.397c4.541-1.217,6.903-6.221,4.957-10.501
	l-13.825-30.388c-1.017-2.236-0.893-4.827,0.336-6.955l17.988-31.155c0.071-0.124,0.071-0.269,0.135-0.395
	c-5.034-1.304-10.019-2.761-14.932-4.411L290.024,435.148z"/>
<path style="fill:#59D8FF;" d="M361.379,50.717C309.33,7.691,238.013-11.299,166.101,6.903
	C63.31,32.919-7.416,130.975,0.621,236.701c5.362,70.52,42.323,129.405,94.937,165.652c6.205,4.275,14.604,3.44,19.768-2.048
	l88.041-93.544c1.411-1.499,2.253-3.444,2.382-5.499l6.967-111.471c0.259-4.141,3.366-7.542,7.467-8.173l87.56-13.471
	c2.728-0.419,5.104-2.092,6.419-4.52l50.989-94.133C368.589,63.151,366.94,55.315,361.379,50.717z"/>
<path style="fill:#00C3F0;" d="M206.656,225.252c-1.992,0-3.982,0.261-5.91,0.779l-3.311,0.887l-10.449-6.033
	c-3.464-2-7.412-3.058-11.413-3.058c-1.994,0-3.981,0.261-5.907,0.778l-5.601,1.5c-3.236-1.674-6.84-2.553-10.489-2.553
	c-5.587,0-10.966,2.042-15.147,5.747l-5.939,5.266l-0.634,0.17l-4.485-6.793c5.309-0.834,10.276-3.775,13.727-9.061
	c3.126-4.788,3.763-10.83,2.283-16.353l-2.749-10.26l37.986-56.713l13.678-3.665c7.069-1.894,12.839-7.109,15.434-13.951
	c2.596-6.841,1.739-14.571-2.293-20.676l-5.704-8.64c-0.622-0.943-1.307-1.831-2.047-2.661c4.022-5.41,5.629-12.54,3.752-19.541
	l-1.972-7.357c-2.673-9.977-11.713-16.914-22.042-16.914c-1.992,0-3.983,0.263-5.913,0.78l-42.546,11.402
	c-8.082,2.166-15.341,6.461-21.11,12.472c-3.357-1.912-7.22-2.99-11.276-2.99c-0.06,0-0.118,0.023-0.178,0.023
	c2.936-8.858,6.426-17.507,10.437-25.899C37.481,74.045-5.75,152.89,0.623,236.701c5.361,70.52,42.323,129.405,94.937,165.652
	c0.435,0.299,0.94,0.382,1.393,0.631c1.187,0.665,2.386,1.311,3.664,1.63c1.467,0.361,2.969,0.399,4.457,0.322
	c0.259-0.013,0.517,0.077,0.777,0.05c1.684-0.174,3.327-0.66,4.876-1.386c0.066-0.031,0.142-0.028,0.209-0.061
	c1.609-0.782,3.101-1.862,4.391-3.234l88.041-93.544c1.411-1.498,2.253-3.444,2.382-5.499l4.721-75.538
	C209.212,225.511,207.96,225.252,206.656,225.252z"/>
<path style="fill:#B4FF87;" d="M209.513,241.055c-1.5-0.611-3.184-0.766-4.827-0.325l-6.358,1.703
	c-1.949,0.523-4.026,0.249-5.774-0.76l-13.178-7.609c-1.748-1.009-3.825-1.282-5.774-0.76l-8.611,2.307
	c-1.949,0.523-4.026,0.249-5.773-0.76l-1.839-1.062c-2.836-1.637-6.402-1.276-8.853,0.897l-7.283,6.457
	c-0.884,0.783-1.938,1.35-3.079,1.657l-7.667,2.054c-3.163,0.847-6.515-0.424-8.319-3.158l-7.935-12.018
	c-1.433-2.171-3.876-3.459-6.477-3.415l-16.396,0.276c-5.26,0.088-9.021-5.062-7.336-10.045l4.026-11.902
	c0.815-2.41,2.781-4.253,5.238-4.912l13.573-3.636c2.784-0.746,5.75,0.145,7.662,2.301l6.24,7.037
	c1.182,1.333,3.015,1.883,4.735,1.422c2.509-0.672,3.998-3.251,3.325-5.759l-3.797-14.171c-0.568-2.119-0.193-4.381,1.028-6.204
	l41.499-61.958c1.026-1.531,2.572-2.638,4.352-3.116l16.44-4.405c5.017-1.344,7.242-7.208,4.38-11.542l-5.704-8.64
	c-1.112-1.685-2.848-2.857-4.825-3.262l-24.028-4.916c-3.603-0.737-7.218,1.208-8.587,4.62l-9.125,22.734
	c-1.504,3.748-5.674,5.667-9.499,4.373l-8.983-3.038c-4.972-1.682-6.788-7.776-3.547-11.905l15.285-19.471
	c1.016-1.295,2.426-2.225,4.016-2.651l23.274-6.236c1.968-0.527,4.179,0.534,4.619,2.523c0.471,2.129,2.616,3.415,4.7,2.856
	l11.024-2.955c4.059-1.088,6.468-5.26,5.381-9.319l-1.968-7.349c-1.088-4.059-5.26-6.468-9.319-5.381l-42.546,11.4
	c-5.804,1.556-11.018,4.794-14.984,9.307l-9.758,11.104c-0.97,1.103-2.777,0.681-3.158-0.738l-1.08-4.031
	c-1.088-4.059-5.26-6.467-9.319-5.379L82.95,76.418c-1.949,0.522-3.611,1.797-4.619,3.545l-6.067,10.505
	c-1.814,3.141-5.592,4.565-9.028,3.404l-13.127-4.441c-3.169-1.072-6.722,0.013-8.668,2.733
	c-19.52,27.265-32.761,58.827-38.352,92.301l2.934-0.786l24.493,40.852c2.301,3.838,7.589,5.544,11.948,4.533
	c4.364-1.012,8.963,0.137,12.342,3.108l12.639,11.107c1.516,1.333,3.5,2.008,5.513,1.878l31.859-2.054
	c2.343-0.151,4.625,0.788,6.183,2.545l5.698,6.426c1.912,2.157,4.879,3.047,7.662,2.301l10.157-2.722
	c4.059-1.088,8.231,1.322,9.319,5.381l1.153,4.305c0.523,1.949,0.249,4.026-0.76,5.773l-2.906,5.034
	c-0.59,1.023-0.934,2.169-1.006,3.348l-1.016,16.928c-0.191,3.182,1.622,6.146,4.542,7.426l36.415,15.954
	c2.117,0.928,3.698,2.767,4.296,5l1.24,4.628l17.572-18.67c1.411-1.499,2.253-3.444,2.382-5.499L209.513,241.055z"/>
<g>
	<path style="fill:#9BF57D;" d="M72.959,245.157l31.858-2.054c2.343-0.151,4.625,0.788,6.183,2.545l5.699,6.428
		c1.912,2.157,4.879,3.047,7.662,2.301l1.124-0.301c-6.151-8.728-11.7-17.974-16.589-27.685c-0.376-0.051-0.746-0.131-1.132-0.125
		l-16.396,0.276c-5.261,0.089-9.021-5.062-7.336-10.046l4.027-11.902c0.815-2.41,2.781-4.253,5.238-4.912l3.977-1.066
		c-1.634-4.774-3.174-9.603-4.5-14.549c-10.004-37.335-9.741-74.975-1.036-110.004l-8.791,2.355
		c-1.949,0.522-3.611,1.797-4.62,3.545l-6.065,10.505c-1.814,3.141-5.592,4.565-9.028,3.404l-13.127-4.441
		c-3.162-1.07-6.601,0.066-8.61,2.712c-2.809,3.919-5.478,7.931-8.023,12.021c-0.902,1.452-1.748,2.936-2.617,4.408
		c-1.798,3.043-3.521,6.128-5.172,9.252c-0.876,1.662-1.764,3.317-2.598,5.001c-2.075,4.184-4.043,8.421-5.852,12.734
		c-0.653,1.559-1.227,3.152-1.845,4.726c-1.307,3.329-2.551,6.684-3.697,10.077c-0.699,2.072-1.358,4.158-1.996,6.253
		c-0.916,3.003-1.745,6.036-2.533,9.082c-0.519,2.006-1.086,3.995-1.548,6.018c-0.962,4.208-1.759,8.462-2.474,12.736l2.88-0.771
		l24.493,40.852c2.362,3.941,7.05,5.837,11.488,4.648c4.499-1.206,9.304-0.083,12.802,2.992l12.639,11.108
		C68.963,244.61,70.945,245.287,72.959,245.157z"/>
	<path style="fill:#9BF57D;" d="M140.929,273.464c-0.238,0.671-0.567,1.315-0.61,2.031l-1.016,16.928
		c-0.191,3.182,1.622,6.146,4.542,7.425l36.415,15.955c2.117,0.927,3.698,2.767,4.296,5l1.24,4.628l8.066-8.57
		C174.194,305.261,156.264,290.706,140.929,273.464z"/>
	<path style="fill:#9BF57D;" d="M186.367,301.865l-31.557-13.826l0.59-9.84l2.008-3.477c3.049-5.281,3.86-11.433,2.282-17.322
		l-1.154-4.306c-0.244-0.909-0.541-1.793-0.887-2.649c1.753,0.425,3.558,0.643,5.373,0.643c1.994,0,3.982-0.261,5.907-0.778
		l5.566-1.492l10.45,6.034c3.465,2,7.412,3.058,11.413,3.058c1.994,0,3.982-0.261,5.907-0.778l1.06-0.284l4.193,6.35
		c0.163,0.247,0.395,0.424,0.567,0.663l1.418-22.68c-0.911-0.375-1.849-0.713-2.85-0.713c-0.654,0-1.315,0.085-1.969,0.26
		l-6.358,1.703c-0.648,0.173-1.31,0.259-1.969,0.259c-1.324,0-2.638-0.345-3.805-1.019l-13.178-7.608
		c-1.166-0.673-2.48-1.019-3.804-1.019c-0.66,0-1.322,0.086-1.969,0.259l-8.611,2.307c-0.648,0.173-1.31,0.259-1.969,0.259
		c-1.324,0-2.638-0.346-3.805-1.019l-1.839-1.062c-1.185-0.684-2.498-1.019-3.803-1.019c-1.818,0-3.623,0.651-5.05,1.916
		l-7.283,6.458c-0.884,0.783-1.938,1.352-3.079,1.656l-7.667,2.054c-0.653,0.175-1.315,0.259-1.969,0.259
		c-2.512,0-4.918-1.249-6.349-3.417l-7.935-12.018c-1.41-2.135-3.796-3.416-6.348-3.416c-0.043,0-0.086,0-0.129,0l-16.396,0.276
		c-0.044,0.001-0.089,0.001-0.133,0.001c-5.192,0-8.875-5.105-7.202-10.046l4.026-11.903c0.815-2.411,2.781-4.253,5.238-4.912
		l13.573-3.636c0.651-0.174,1.313-0.259,1.969-0.259c2.146,0,4.229,0.909,5.693,2.561l6.24,7.037
		c0.905,1.021,2.192,1.583,3.518,1.583c0.406,0,0.814-0.053,1.218-0.161c2.508-0.672,3.997-3.25,3.325-5.759l-3.797-14.171
		c-0.568-2.119-0.193-4.381,1.028-6.204l41.499-61.958c1.025-1.531,2.572-2.639,4.352-3.116l16.44-4.405
		c5.017-1.345,7.242-7.208,4.38-11.541l-5.704-8.641c-1.111-1.684-2.848-2.857-4.825-3.262l-24.028-4.917
		c-0.512-0.105-1.024-0.156-1.529-0.156c-3.056,0-5.884,1.848-7.058,4.776l-9.125,22.733c-1.187,2.957-4.034,4.777-7.061,4.777
		c-0.809,0-1.632-0.13-2.438-0.403l-8.982-3.038c-4.973-1.682-6.788-7.776-3.547-11.906l15.285-19.471
		c1.016-1.295,2.426-2.225,4.016-2.651l23.273-6.236c0.33-0.088,0.662-0.13,0.987-0.13c1.679,0,3.217,1.121,3.673,2.82
		c0.456,1.7,1.992,2.821,3.673,2.821c0.325,0,0.658-0.043,0.987-0.131l11.025-2.953c4.059-1.088,6.467-5.26,5.38-9.319l-1.969-7.35
		c-0.911-3.399-3.986-5.641-7.344-5.641c-0.652,0-1.314,0.084-1.975,0.26l-42.546,11.4c-5.804,1.556-11.017,4.794-14.984,9.307
		l-9.759,11.104c-0.376,0.428-0.877,0.627-1.374,0.627c-0.783,0-1.551-0.495-1.785-1.364l-1.08-4.03
		c-0.91-3.4-3.985-5.642-7.344-5.642c-0.652,0-1.314,0.085-1.974,0.26l-11.655,3.123c-1.949,0.523-3.611,1.797-4.62,3.545
		l-6.065,10.507c-1.389,2.406-3.932,3.805-6.591,3.805c-0.811,0-1.634-0.13-2.437-0.403L50.109,89.43
		c-0.805-0.273-1.632-0.404-2.448-0.404c-2.459,0-4.829,1.188-6.319,3.274c-0.001,0.001-0.004,0.001-0.007,0.002
		c-0.031,0.043-0.063,0.085-0.094,0.128c-2.781,3.885-5.43,7.865-7.964,11.928c-0.235,0.38-0.456,0.769-0.688,1.15
		c4.843,2.03,6.365,2.069,8.565,2.069l8.019-0.06l1.348-1.885l7.842,2.653c2.363,0.799,4.823,1.204,7.312,1.204
		c8.13,0,15.705-4.373,19.769-11.414l4.49-7.777l1.599-0.429c2.178,4.338,6.12,7.545,10.776,8.815
		c-1.002,3.943-0.95,8.141,0.243,12.141c2.112,7.088,7.555,12.736,14.562,15.106l8.982,3.038c2.364,0.8,4.826,1.206,7.315,1.206
		c3.38,0,6.622-0.731,9.549-2.073l-29.535,44.096c-1.72,2.568-2.88,5.426-3.451,8.392c-0.375-0.019-0.751-0.028-1.13-0.028
		c-1.992,0-3.981,0.261-5.908,0.779l-13.572,3.636c-7.39,1.979-13.265,7.489-15.716,14.734l-4.027,11.902
		c-1.419,4.193-1.562,8.664-0.514,12.86l-4.252-3.736c-5.323-4.678-12.157-7.254-19.243-7.254c-1.279,0-2.554,0.084-3.821,0.252
		l-22.714-37.884l-5.902-9.844l-6.655,1.784c-0.009,0.036-0.019,0.072-0.028,0.109c-1.337,5.445-2.47,10.968-3.394,16.562
		l2.928-0.784l24.493,40.852c1.891,3.154,5.274,4.999,8.824,4.999c0.885,0,1.78-0.115,2.664-0.351
		c1.19-0.319,2.402-0.474,3.605-0.474c3.345,0,6.624,1.206,9.198,3.466l12.64,11.108c1.392,1.224,3.178,1.893,5.022,1.893
		c0.163,0,0.327-0.004,0.49-0.015l31.858-2.054c0.163-0.011,0.327-0.015,0.49-0.015c2.168,0,4.244,0.927,5.693,2.561l5.699,6.428
		c1.464,1.652,3.548,2.561,5.693,2.561c0.656,0,1.317-0.085,1.969-0.259l10.157-2.722c0.66-0.177,1.323-0.261,1.975-0.261
		c3.359,0,6.434,2.242,7.344,5.642l1.153,4.305c0.523,1.949,0.249,4.026-0.76,5.773l-2.906,5.034
		c-0.59,1.023-0.934,2.169-1.006,3.348l-1.016,16.93c-0.191,3.182,1.622,6.145,4.542,7.425l36.416,15.955
		c2.117,0.927,3.697,2.767,4.296,5l1.24,4.628l11.873-12.615C195.325,307.976,191.405,304.072,186.367,301.865z M161.351,99.013
		l7.746,1.585l-1.116,0.299c-3.548,0.951-6.784,2.734-9.459,5.169L161.351,99.013z"/>
</g>
<path style="fill:#00C3F0;" d="M365.148,69.503c3.368-6.217,1.955-14.001-3.486-18.516c-0.357-0.297-0.715-0.591-1.073-0.886
	c-1.518-1.243-3.09-2.421-4.64-3.624c-2.216-1.722-4.454-3.416-6.736-5.054c-1.835-1.315-3.688-2.603-5.563-3.861
	c-2.154-1.447-4.347-2.835-6.553-4.208c-1.923-1.195-3.828-2.416-5.788-3.554c-3.504-2.033-7.073-3.966-10.695-5.81
	c-2.116-1.078-4.277-2.065-6.43-3.075c-2.573-1.206-5.151-2.4-7.776-3.508c-0.854-0.362-1.724-0.685-2.585-1.036
	c-2.735,3.276-4.545,7.355-4.819,11.907l-0.164,2.749l-3.988,3.537c-1.741,1.543-3.109,3.376-4.219,5.344
	c-1.925-0.65-3.922-1.108-6.017-1.108c-1.649,0-3.294,0.216-4.89,0.643l-1.239,0.332c-8.958,2.401-14.649,10.892-13.898,19.828
	c-3.535,1.658-6.398,4.26-8.335,7.614c-2.524,4.371-3.194,9.464-1.888,14.339c1.688,6.302,6.264,11.087,12,13.142
	c-0.567,0.735-1.152,1.453-1.624,2.271c-2.752,4.765-3.482,10.317-2.058,15.631l3.123,11.654c0.643,2.403,1.699,4.612,3.078,6.559
	c-0.237,0.734-0.436,1.486-0.594,2.255l-2.25,10.992l-7.624,13.204c-3.237,5.607-4.114,12.269-2.437,18.522l0.084,0.313l51.68-7.951
	c2.728-0.42,5.104-2.092,6.419-4.52L365.148,69.503z"/>
<g>
	<path style="fill:#8CE16E;" d="M72.959,245.155l31.859-2.054c0.163-0.011,0.327-0.015,0.49-0.015c2.168,0,4.244,0.927,5.693,2.561
		l5.699,6.426c1.464,1.652,3.548,2.561,5.693,2.561c0.656,0,1.317-0.085,1.969-0.259l1.125-0.301
		c-6.151-8.729-11.7-17.974-16.589-27.685c-0.334-0.045-0.661-0.126-1.003-0.126c-0.043,0-0.085,0-0.129,0.001l-16.396,0.276
		c-0.044,0.001-0.089,0.001-0.133,0.001c-5.192,0-8.875-5.105-7.202-10.047l4.026-11.902c0.815-2.41,2.781-4.253,5.238-4.912
		l3.977-1.066c-1.634-4.774-3.174-9.602-4.499-14.549l0,0l-3.416,0.916c-7.373,1.976-13.27,7.505-15.716,14.735l-4.026,11.901
		c-1.419,4.193-1.562,8.664-0.514,12.86l-4.252-3.736c-5.322-4.678-12.157-7.254-19.243-7.254c-1.279,0-2.555,0.084-3.821,0.252
		l-22.714-37.884l-2.479-4.135c-2.027-3.38-6.048-5.007-9.854-3.987l-0.156,0.042c-0.015,0.015-0.028,0.028-0.042,0.043
		c-1.015,4.053-1.797,8.195-2.566,12.34c-0.27,1.433-0.592,2.853-0.834,4.294l2.88-0.772l24.493,40.852
		c1.891,3.154,5.274,4.999,8.824,4.999c0.885,0,1.78-0.115,2.664-0.352c1.19-0.319,2.402-0.474,3.605-0.474
		c3.345,0,6.624,1.206,9.198,3.466l12.639,11.108c1.392,1.225,3.18,1.893,5.022,1.893C72.632,245.172,72.796,245.166,72.959,245.155
		z"/>
	<path style="fill:#8CE16E;" d="M50.519,105.634c1.954,0.683,7.842,2.653,7.842,2.653c2.363,0.799,4.823,1.204,7.314,1.204
		c8.13,0,15.705-4.373,19.769-11.414l2.276-3.942c1.026-6.774,2.381-13.467,4.022-20.074l-8.791,2.355
		c-1.949,0.523-3.611,1.797-4.62,3.545l-6.067,10.507c-1.389,2.406-3.933,3.805-6.591,3.805c-0.811,0-1.634-0.13-2.437-0.403
		L50.109,89.43c-0.806-0.273-1.633-0.404-2.448-0.404c-2.366,0-4.631,1.123-6.13,3.066c-3.135,4.372-6.146,8.83-8.953,13.415
		C37.554,103.748,41.967,102.645,50.519,105.634z"/>
	<path style="fill:#8CE16E;" d="M155.441,288.316l-0.63-0.276l0.017-0.282c-4.838-4.538-9.468-9.312-13.899-14.294
		c-0.238,0.671-0.567,1.316-0.61,2.031l-1.016,16.93c-0.191,3.182,1.622,6.145,4.542,7.425l36.416,15.955
		c2.117,0.927,3.697,2.767,4.296,5l1.24,4.628l8.075-8.579C180.119,308.743,167.186,299.248,155.441,288.316z"/>
</g>
<path style="fill:#9BF57D;" d="M287.682,55.672l8.986,13.61c1.383,2.095,0.308,4.929-2.117,5.578l-6.218,1.666
	c-1.962,0.525-3.978-0.639-4.505-2.6l-4.004-14.944c-0.525-1.962,0.639-3.978,2.6-4.505l1.237-0.331
	C285.19,53.736,286.809,54.351,287.682,55.672z"/>
<g>
	<path style="fill:#B4FF87;" d="M336.307,122.746c-0.007-0.023-0.023-0.042-0.029-0.065l-1.542-5.756
		c-0.769-2.871-3.719-4.574-6.59-3.805l-8.659,2.32c-0.527,0.237-1.044,0.469-1.571,0.706l-18.622,12.296
		c-0.527,0.237-1.046,0.47-1.573,0.707l-10.643,2.852c-1.968,0.527-3.47,2.122-3.879,4.118l-2.445,11.948
		c-0.351,0.923-0.694,1.83-1.045,2.754l-8.11,14.048c-1.219,2.112-1.55,4.62-0.919,6.976l0.515,1.924l36.549-5.623
		c2.728-0.42,5.104-2.092,6.419-4.52L336.307,122.746z"/>
	<path style="fill:#B4FF87;" d="M314.192,29.193l-0.409,6.815c-0.086,1.425-0.734,2.757-1.801,3.704l-7.037,6.24
		c-2.223,1.972-2.427,5.372-0.456,7.595l4.475,5.046c1.596,1.799,4.486,1.507,5.69-0.576l0.245-0.425
		c1.486-2.574,4.776-3.455,7.35-1.969s5.864,0.603,7.35-1.969l2.69-4.659l0.853-4.167l4.35,4.906c2.172,2.45,1.671,6.255-1.06,8.059
		l-14.174,9.358c-0.483,0.319-1.014,0.558-1.573,0.707l-11.702,3.135c-1.378,0.37-2.554,1.271-3.268,2.507l-4.266,7.389l-2.573,0.69
		c-2.638,0.707-4.203,3.418-3.496,6.056l1.265,4.726c0.769,2.871-0.934,5.82-3.804,6.59l-11.655,3.123
		c-2.87,0.769-4.573,3.719-3.804,6.59l3.123,11.655c0.769,2.871,3.719,4.573,6.59,3.804l20.456-5.481
		c2.237-0.599,3.839-2.563,3.978-4.874l1.209-20.148l7.35-1.969l20.088,6.795c2.522,0.853,4.977-1.449,4.287-4.02
		c-0.229-0.854-0.788-1.582-1.553-2.023l-8.123-4.69l7.35-1.969l12.799,2.619l10.238-18.901c3.312-6.113,2.073-13.846-3.271-18.292
		c-0.031-0.025-0.062-0.051-0.093-0.077c-0.168-0.139-0.331-0.286-0.499-0.425c-9.474-7.827-19.59-14.849-30.227-21.004
		c-0.852-0.492-1.729-0.942-2.588-1.423c-2.197-1.232-4.414-2.428-6.654-3.586C318.421,23.067,314.422,25.379,314.192,29.193z"/>
</g>
<g>
	<path style="fill:#9BF57D;" d="M276.412,75.649l0.065,0.245c0.525,1.962-0.639,3.978-2.6,4.505l-0.245,0.066
		c-1.962,0.525-3.978-0.639-4.505-2.6l-0.066-0.245c-0.525-1.962,0.639-3.978,2.6-4.505l0.245-0.066
		C273.87,72.524,275.887,73.688,276.412,75.649z"/>
	<path style="fill:#9BF57D;" d="M319.599,24.097c-2.723,0-5.226,2.104-5.406,5.096l-0.409,6.815
		c-0.085,1.424-0.734,2.757-1.801,3.703l-7.037,6.24c-2.223,1.972-2.427,5.372-0.456,7.595l4.475,5.045
		c0.709,0.8,1.674,1.187,2.632,1.187c1.199,0,2.389-0.605,3.057-1.763l0.245-0.425c0.996-1.727,2.804-2.691,4.665-2.691
		c0.912,0,1.837,0.233,2.685,0.722c0.847,0.49,1.772,0.722,2.685,0.722c1.86,0,3.668-0.964,4.665-2.691l2.69-4.659l0.853-4.167
		l4.35,4.906c2.172,2.449,1.671,6.255-1.06,8.059l-14.175,9.358c-0.482,0.319-1.013,0.557-1.572,0.707l-11.702,3.135
		c-1.379,0.37-2.553,1.271-3.267,2.507l-4.266,7.39l-2.573,0.69c-2.638,0.707-4.203,3.419-3.496,6.057l1.265,4.725
		c0.769,2.871-0.933,5.821-3.804,6.59l-11.655,3.122c-2.871,0.769-4.574,3.72-3.804,6.59l3.123,11.655
		c0.644,2.403,2.819,3.989,5.194,3.989c0.46,0,0.929-0.06,1.396-0.184l20.456-5.481c2.237-0.599,3.839-2.563,3.978-4.874
		l1.209-20.148l7.35-1.969l20.088,6.795c0.365,0.124,0.729,0.181,1.081,0.181c2.085,0,3.795-2.002,3.206-4.201
		c-0.229-0.854-0.788-1.582-1.553-2.023l-8.123-4.69l7.35-1.969l12.799,2.619l7.33-13.531c-1.189-0.487-2.373-0.989-3.667-1.253
		l-13.411-2.744l-0.677-0.138l0.308-0.203c4.986-3.292,8.292-8.578,9.072-14.501c0.616-4.678-0.463-9.34-2.87-13.311
		c-1.185-0.867-2.415-1.668-3.618-2.511c-2.643-1.857-5.311-3.68-8.038-5.421c-1.84-1.175-3.708-2.307-5.584-3.428
		c-2.605-1.556-5.25-3.049-7.923-4.501c-1.34-0.728-2.673-1.471-4.029-2.171C321.094,24.308,320.341,24.097,319.599,24.097z"/>
	<path style="fill:#9BF57D;" d="M286.025,170.319l6.861-11.884c1.315-2.276,2.248-4.736,2.777-7.314l1.226-5.993l4.769-1.279
		c2.144-0.575,4.169-1.485,6.021-2.707l15.559-10.272c1.296,2.472,3.173,4.505,5.291,6.238l7.779-14.361
		c-0.007-0.023-0.023-0.042-0.029-0.065l-1.542-5.757c-0.643-2.404-2.818-3.988-5.193-3.988c-0.461,0-0.93,0.06-1.397,0.184
		l-8.659,2.32c-0.558,0.15-1.089,0.388-1.572,0.707l-18.622,12.296c-0.483,0.319-1.014,0.557-1.572,0.707l-10.643,2.852
		c-1.968,0.527-3.47,2.122-3.879,4.118l-2.445,11.948c-0.199,0.969-0.552,1.899-1.045,2.755l-8.111,14.048
		c-1.219,2.112-1.549,4.62-0.918,6.976l0.515,1.924l15.131-2.328L286.025,170.319z"/>
</g>
<g>
	<path style="fill:#FFDC64;" d="M194.211,406.015c-4.879,0-8.826-3.947-8.826-8.826v-17.652c0-4.879,3.947-8.826,8.826-8.826
		s8.826,3.947,8.826,8.826v17.652C203.037,402.068,199.089,406.015,194.211,406.015z"/>
	<path style="fill:#FFDC64;" d="M247.167,247.146c-4.879,0-8.826-3.947-8.826-8.826v-17.652c0-4.879,3.947-8.826,8.826-8.826
		s8.826,3.947,8.826,8.826v17.652C255.993,243.198,252.046,247.146,247.167,247.146z"/>
</g>
<path style="fill:#FFC850;" d="M361.906,203.015h-17.652c-4.879,0-8.826-3.947-8.826-8.826s3.947-8.826,8.826-8.826h17.652
	c4.879,0,8.826,3.947,8.826,8.826S366.785,203.015,361.906,203.015z"/>
<path style="fill:#FFF8C1;" d="M388.377,105.928c-1.198,0-2.414-0.242-3.577-0.759c-4.456-1.983-6.456-7.197-4.483-11.654
	l35.304-79.435c1.991-4.438,7.205-6.447,11.654-4.483c4.456,1.983,6.456,7.197,4.483,11.654l-35.304,79.435
	C394.987,103.972,391.764,105.928,388.377,105.928z"/>
<g>
	<path style="fill:#FFF082;" d="M79.471,485.45c-2.482,0-4.956-1.043-6.697-3.086c-3.181-3.698-2.749-9.265,0.957-12.437
		l61.783-52.956c3.698-3.172,9.274-2.749,12.437,0.957c3.181,3.698,2.749,9.265-0.957,12.437l-61.783,52.957
		C83.549,484.752,81.506,485.45,79.471,485.45z"/>
	<path style="fill:#FFF082;" d="M397.21,141.233c-2.258,0-4.517-0.862-6.24-2.586c-3.448-3.448-3.448-9.033,0-12.481l52.956-52.957
		c3.448-3.448,9.033-3.448,12.481,0c3.448,3.448,3.448,9.034,0,12.481l-52.956,52.956
		C401.727,140.371,399.469,141.233,397.21,141.233z"/>
</g>
<g>
	<circle style="fill:#FFC850;" cx="238.338" cy="326.575" r="8.826"/>
	<circle style="fill:#FFC850;" cx="291.294" cy="203.01" r="8.826"/>
</g>
<path style="fill:#FFF8C1;" d="M123.594,511.928c-1.327,0-2.672-0.301-3.939-0.931c-4.361-2.181-6.129-7.481-3.947-11.842
	l17.652-35.304c2.189-4.361,7.49-6.111,11.842-3.947c4.361,2.181,6.129,7.481,3.947,11.842l-17.652,35.304
	C129.946,510.144,126.834,511.928,123.594,511.928z"/>
</svg>